<svg xmlns="http://www.w3.org/2000/svg" viewBox="0 0 292.212 155.048"><g><g><path d="M67.153,0H8A8.009,8.009,0,0,0,0,8V147.048a8.009,8.009,0,0,0,8,8H67.153a8.009,8.009,0,0,0,8-8V8A8.009,8.009,0,0,0,67.153,0ZM8,4H67.153a4,4,0,0,1,4,4V19.2H4V8A4,4,0,0,1,8,4ZM71.153,21.2V138.352H4V21.2Zm-4,129.849H8a4,4,0,0,1-4-4v-6.7H71.153v6.7A4,4,0,0,1,67.153,151.048Z" style="fill:#0046b7"/><path d="M279.66,136.884V39.01a8.009,8.009,0,0,0-8-8H104.615a8.009,8.009,0,0,0-8,8v97.874H84.063l3.484,12.338a8.033,8.033,0,0,0,7.7,5.826H281.029a8.033,8.033,0,0,0,7.7-5.826l3.483-12.338ZM100.615,39.01a4,4,0,0,1,4-4H271.66a4,4,0,0,1,4,4v97.874H100.615Zm68.552,101.874h37.941v4.082H169.167Zm115.712,7.25a4.014,4.014,0,0,1-3.85,2.914H95.246a4.016,4.016,0,0,1-3.85-2.913l-2.047-7.251h77.818v6.082h41.941v-6.082h77.819Z" style="fill:#0046b7"/><path d="M109.829,129.522H266.446V44.373H109.829Zm3-82.149H263.446v79.149H112.829Z" style="fill:#0046b7"/><path d="M31.047,14.293H43.035a2,2,0,0,0,0-4H31.047a2,2,0,0,0,0,4Z" style="fill:#0046b7"/><circle cx="25.259" cy="12.293" r="2" style="fill:#0046b7"/></g></g></svg>
