<svg xmlns="http://www.w3.org/2000/svg" viewBox="0 0 137.753 137.753"><g><g><circle cx="68.877" cy="32.8" r="8.197" style="fill:#0046b7"/><path d="M105.4,38.574a3.154,3.154,0,0,0-3.595-2.638s-23.453,6.869-27.625,7.44a38.065,38.065,0,0,1-5.3.25h0a38.08,38.08,0,0,1-5.3-.25c-4.172-.571-27.625-7.44-27.625-7.44A3.153,3.153,0,0,0,34.642,42.1l25.9,9.916-.916,20.23-12.661,38.41A3.618,3.618,0,0,0,53.9,112.69L68.877,77.211h0L83.855,112.69a3.617,3.617,0,0,0,6.935-2.039L78.129,72.241l-.916-20.23,25.9-9.916A3.154,3.154,0,0,0,105.4,38.574Z" style="fill:#0046b7"/><path d="M68.876,137.753a68.877,68.877,0,1,1,68.877-68.877A68.955,68.955,0,0,1,68.876,137.753ZM68.876,4a64.877,64.877,0,1,0,64.877,64.876A64.95,64.95,0,0,0,68.876,4Z" style="fill:#0046b7"/></g></g></svg>
