<svg xmlns="http://www.w3.org/2000/svg" viewBox="0 0 214.132 139.812"><g><g><path d="M69.469,94.541a85.4,85.4,0,0,1-36.1-7.695L0,94.531,13.236,71.954C6.9,64.534,3.561,56.028,3.561,47.271,3.561,21.205,33.127,0,69.469,0c33.5,0,55.565,14.066,63.818,40.678l-3.82,1.185C121.675,16.739,101.489,4,69.469,4,35.333,4,7.561,23.411,7.561,47.271c0,8.186,3.324,16.175,9.613,23.1l.988,1.089L8.143,88.551l25.692-5.917.633.3a81.133,81.133,0,0,0,35,7.6Z" style="fill:#0046b7"/><rect x="35.403" y="37.578" width="63.736" height="4" style="fill:#0046b7"/><rect x="35.403" y="58.457" width="34.066" height="4" style="fill:#0046b7"/><path d="M144.663,139.812c-36.342,0-65.908-21.206-65.908-47.271s29.566-47.27,65.908-47.27,65.908,21.205,65.908,47.27c0,8.758-3.341,17.264-9.675,24.684L214.132,139.8l-33.371-7.686A85.389,85.389,0,0,1,144.663,139.812Zm0-90.541c-34.136,0-61.908,19.411-61.908,43.27s27.772,43.271,61.908,43.271a81.12,81.12,0,0,0,35-7.6l.632-.305,25.693,5.917L195.97,116.732l.988-1.088c6.289-6.927,9.613-14.916,9.613-23.1C206.571,68.682,178.8,49.271,144.663,49.271Z" style="fill:#0046b7"/><rect x="114.993" y="82.849" width="63.736" height="4" style="fill:#0046b7"/><rect x="114.344" y="103.728" width="34.066" height="4" style="fill:#0046b7"/><rect x="157.826" y="103.728" width="8.866" height="4" style="fill:#0046b7"/></g></g></svg>
